# xmcd
#
# Track frame offsets:
# 150
# 18722
# 35870
# 56572
# 75312
# 92122
# 114465
# 136140
# 159415
# 179350
# 196222
# 218682
# 240235
# 261640
# 279242
#
# Disc length: 3989 seconds
#
#
# Revision: 1
# Processed by: cddbd v1.5.2PL0 Copyright (c) Steve Scherf et al.
# Submitted via: FreeRIP 2.951 
#
DISCID=ca0f930f
DTITLE=Donato and Estéfano - Lo mejor de Donato and Estéfano - Lo Mejor De Donato and Estéfano
DYEAR=1998
DGENRE=Ballad
TTITLE0=Sin Tí
TTITLE1=Mar Adentro
TTITLE2=Toma Tu Tiempo Y Sueña
TTITLE3=Y Bailo
TTITLE4=Te Estoy Amando
TTITLE5=Naturaleza
TTITLE6=Estoy Enamorado (Con Julio Iglesias)
TTITLE7=Con Su Blanca Palidez (A Whiter Shade Of Pale)
TTITLE8=Mi Dios Y Mi Cruz
TTITLE9=Entre La Línea Del Bien Y La Línea Del Mal
TTITLE10=De La Tierra Al Cielo
TTITLE11=Quien Te Quiera Como Yo
TTITLE12=De Hombre A Mujer
TTITLE13=Vuelve
TTITLE14=Cafeína
EXTD=
EXTT0=
EXTT1=
EXTT2=
EXTT3=
EXTT4=
EXTT5=
EXTT6=
EXTT7=
EXTT8=
EXTT9=
EXTT10=
EXTT11=
EXTT12=
EXTT13=
EXTT14=
PLAYORDER=
